<?xml version="1.0" encoding="UTF-8"?>
<svg id="Layer_1" data-name="Layer 1" xmlns="http://www.w3.org/2000/svg" xmlns:xlink="http://www.w3.org/1999/xlink" viewBox="0 0 2347.1 464.67">
  <defs>
    <style>
      .cls-1 {
        fill: url(#linear-gradient-15);
      }

      .cls-2 {
        fill: url(#linear-gradient-13);
      }

      .cls-3 {
        fill: url(#linear-gradient-28);
      }

      .cls-4 {
        fill: url(#linear-gradient-2);
      }

      .cls-5 {
        fill: url(#linear-gradient-25);
      }

      .cls-6 {
        fill: url(#linear-gradient-10);
      }

      .cls-7 {
        fill: url(#linear-gradient-12);
      }

      .cls-8 {
        fill: url(#linear-gradient-40);
      }

      .cls-9 {
        fill: url(#linear-gradient-27);
      }

      .cls-10 {
        fill: url(#linear-gradient-37);
      }

      .cls-11 {
        fill: url(#linear-gradient-39);
      }

      .cls-12 {
        fill: url(#linear-gradient-26);
      }

      .cls-13 {
        fill: url(#linear-gradient-4);
      }

      .cls-14 {
        fill: url(#linear-gradient-35);
      }

      .cls-15 {
        fill: url(#linear-gradient-30);
      }

      .cls-16 {
        fill: url(#linear-gradient-3);
      }

      .cls-17 {
        fill: url(#linear-gradient-34);
      }

      .cls-18 {
        fill: url(#linear-gradient-5);
      }

      .cls-19 {
        fill: url(#linear-gradient-38);
      }

      .cls-20 {
        fill: url(#linear-gradient-22);
      }

      .cls-21 {
        fill: url(#linear-gradient-24);
      }

      .cls-22 {
        fill: url(#linear-gradient-33);
      }

      .cls-23 {
        fill: url(#linear-gradient-8);
      }

      .cls-24 {
        fill: url(#linear-gradient-14);
      }

      .cls-25 {
        fill: url(#linear-gradient-29);
      }

      .cls-26 {
        fill: url(#linear-gradient-20);
      }

      .cls-27 {
        fill: url(#linear-gradient-17);
      }

      .cls-28 {
        fill: url(#linear-gradient-7);
      }

      .cls-29 {
        fill: url(#linear-gradient-9);
      }

      .cls-30 {
        fill: url(#linear-gradient-11);
      }

      .cls-31 {
        fill: url(#linear-gradient-19);
      }

      .cls-32 {
        fill: url(#linear-gradient-6);
      }

      .cls-33 {
        fill: url(#linear-gradient-36);
      }

      .cls-34 {
        fill: url(#linear-gradient-21);
      }

      .cls-35 {
        fill: url(#linear-gradient-32);
      }

      .cls-36 {
        fill: url(#linear-gradient-16);
      }

      .cls-37 {
        fill: url(#linear-gradient);
      }

      .cls-38 {
        fill: url(#linear-gradient-23);
      }

      .cls-39 {
        fill: url(#linear-gradient-31);
      }

      .cls-40 {
        fill: url(#linear-gradient-18);
      }
    </style>
    <linearGradient id="linear-gradient" x1="-588.69" y1="399.28" x2="-587.7" y2="5.75" gradientTransform="translate(351.63) rotate(-180) scale(1 -1)" gradientUnits="userSpaceOnUse">
      <stop offset=".02" stop-color="#6acce1"/>
      <stop offset=".08" stop-color="#5fb2c4"/>
      <stop offset=".19" stop-color="#4f8b99"/>
      <stop offset=".3" stop-color="#416a73"/>
      <stop offset=".42" stop-color="#364e55"/>
      <stop offset=".54" stop-color="#2d393d"/>
      <stop offset=".67" stop-color="#272a2d"/>
      <stop offset=".82" stop-color="#242123"/>
      <stop offset="1" stop-color="#231f20"/>
    </linearGradient>
    <linearGradient id="linear-gradient-2" x1="-522.16" y1="397.78" x2="-521.18" y2="11.17" xlink:href="#linear-gradient"/>
    <linearGradient id="linear-gradient-3" x1="-455.37" y1="394.72" x2="-454.41" y2="17.09" xlink:href="#linear-gradient"/>
    <linearGradient id="linear-gradient-4" x1="-455.69" y1="416.56" x2="-454.67" y2="14.25" xlink:href="#linear-gradient"/>
    <linearGradient id="linear-gradient-5" x1="-649.48" y1="392.88" x2="-648.51" y2="12.07" xlink:href="#linear-gradient"/>
    <linearGradient id="linear-gradient-6" x1="-521.83" y1="392.19" x2="-520.88" y2="18.45" xlink:href="#linear-gradient"/>
    <linearGradient id="linear-gradient-7" x1="-392.77" y1="394.71" x2="-391.79" y2="9.18" xlink:href="#linear-gradient"/>
    <linearGradient id="linear-gradient-8" x1="-329.94" y1="399.3" x2="-328.96" y2="11.84" xlink:href="#linear-gradient"/>
    <linearGradient id="linear-gradient-9" x1="-454.33" y1="392.02" x2="-453.37" y2="15.02" xlink:href="#linear-gradient"/>
    <linearGradient id="linear-gradient-10" x1="-554.6" y1="416.56" x2="-553.58" y2="14.25" gradientTransform="translate(1427.09)" xlink:href="#linear-gradient"/>
    <linearGradient id="linear-gradient-11" x1="61.51" y1="433.55" x2="62.51" y2="40.02" gradientTransform="translate(351.63) rotate(-180) scale(1 -1)" gradientUnits="userSpaceOnUse">
      <stop offset=".02" stop-color="#7e1416"/>
      <stop offset=".05" stop-color="#761416"/>
      <stop offset=".21" stop-color="#58181a"/>
      <stop offset=".38" stop-color="#401b1c"/>
      <stop offset=".56" stop-color="#301d1e"/>
      <stop offset=".75" stop-color="#261e1f"/>
      <stop offset="1" stop-color="#231f20"/>
    </linearGradient>
    <linearGradient id="linear-gradient-12" x1="128.04" y1="432.05" x2="129.02" y2="45.44" xlink:href="#linear-gradient-11"/>
    <linearGradient id="linear-gradient-13" x1="194.84" y1="428.99" x2="195.79" y2="51.36" xlink:href="#linear-gradient-11"/>
    <linearGradient id="linear-gradient-14" x1="194.51" y1="450.82" x2="195.53" y2="48.52" xlink:href="#linear-gradient-11"/>
    <linearGradient id="linear-gradient-15" x1=".72" y1="427.15" x2="1.69" y2="46.33" xlink:href="#linear-gradient-11"/>
    <linearGradient id="linear-gradient-16" x1="128.37" y1="426.45" x2="129.32" y2="52.72" xlink:href="#linear-gradient-11"/>
    <linearGradient id="linear-gradient-17" x1="257.43" y1="428.98" x2="258.41" y2="43.45" xlink:href="#linear-gradient-11"/>
    <linearGradient id="linear-gradient-18" x1="320.26" y1="433.57" x2="321.24" y2="46.11" xlink:href="#linear-gradient-11"/>
    <linearGradient id="linear-gradient-19" x1="195.87" y1="426.29" x2="196.83" y2="49.29" xlink:href="#linear-gradient-11"/>
    <linearGradient id="linear-gradient-20" x1="-1204.8" y1="450.82" x2="-1203.78" y2="48.52" gradientTransform="translate(1427.09)" xlink:href="#linear-gradient-11"/>
    <linearGradient id="linear-gradient-21" x1="-1249.04" y1="433.55" x2="-1248.05" y2="40.02" gradientTransform="translate(351.63) rotate(-180) scale(1 -1)" gradientUnits="userSpaceOnUse">
      <stop offset="0" stop-color="#232020"/>
      <stop offset=".1" stop-color="#252626"/>
      <stop offset=".24" stop-color="#2c373a"/>
      <stop offset=".42" stop-color="#38535a"/>
      <stop offset=".61" stop-color="#487b86"/>
      <stop offset=".82" stop-color="#5dadbe"/>
      <stop offset=".94" stop-color="#6acce1"/>
    </linearGradient>
    <linearGradient id="linear-gradient-22" x1="-1182.51" y1="432.05" x2="-1181.53" y2="45.44" xlink:href="#linear-gradient-21"/>
    <linearGradient id="linear-gradient-23" x1="-1115.72" y1="428.99" x2="-1114.76" y2="51.36" xlink:href="#linear-gradient-21"/>
    <linearGradient id="linear-gradient-24" x1="-1116.04" y1="450.82" x2="-1115.02" y2="48.52" xlink:href="#linear-gradient-21"/>
    <linearGradient id="linear-gradient-25" x1="-1309.83" y1="427.15" x2="-1308.86" y2="46.33" xlink:href="#linear-gradient-21"/>
    <linearGradient id="linear-gradient-26" x1="-1182.18" y1="426.45" x2="-1181.23" y2="52.72" xlink:href="#linear-gradient-21"/>
    <linearGradient id="linear-gradient-27" x1="-1053.12" y1="428.98" x2="-1052.14" y2="43.45" xlink:href="#linear-gradient-21"/>
    <linearGradient id="linear-gradient-28" x1="-990.29" y1="433.57" x2="-989.31" y2="46.11" xlink:href="#linear-gradient-21"/>
    <linearGradient id="linear-gradient-29" x1="-1114.68" y1="426.29" x2="-1113.72" y2="49.29" xlink:href="#linear-gradient-21"/>
    <linearGradient id="linear-gradient-30" x1="105.75" y1="450.82" x2="106.77" y2="48.52" gradientTransform="translate(1427.09)" xlink:href="#linear-gradient-21"/>
    <linearGradient id="linear-gradient-31" x1="-1904.32" y1="433.55" x2="-1903.32" y2="40.02" gradientTransform="translate(351.63) rotate(-180) scale(1 -1)" gradientUnits="userSpaceOnUse">
      <stop offset=".01" stop-color="#231f20"/>
      <stop offset=".21" stop-color="#3a1c1d"/>
      <stop offset=".55" stop-color="#5f1719"/>
      <stop offset=".82" stop-color="#751416"/>
      <stop offset="1" stop-color="#7e1416"/>
    </linearGradient>
    <linearGradient id="linear-gradient-32" x1="-1837.79" y1="432.05" x2="-1836.81" y2="45.44" xlink:href="#linear-gradient-31"/>
    <linearGradient id="linear-gradient-33" x1="-1770.99" y1="428.99" x2="-1770.03" y2="51.36" xlink:href="#linear-gradient-31"/>
    <linearGradient id="linear-gradient-34" x1="-1771.31" y1="450.82" x2="-1770.29" y2="48.52" xlink:href="#linear-gradient-31"/>
    <linearGradient id="linear-gradient-35" x1="-1965.1" y1="427.15" x2="-1964.14" y2="46.33" xlink:href="#linear-gradient-31"/>
    <linearGradient id="linear-gradient-36" x1="-1837.46" y1="426.45" x2="-1836.51" y2="52.72" xlink:href="#linear-gradient-31"/>
    <linearGradient id="linear-gradient-37" x1="-1708.39" y1="428.98" x2="-1707.41" y2="43.45" xlink:href="#linear-gradient-31"/>
    <linearGradient id="linear-gradient-38" x1="-1645.57" y1="433.57" x2="-1644.59" y2="46.11" xlink:href="#linear-gradient-31"/>
    <linearGradient id="linear-gradient-39" x1="-1769.95" y1="426.29" x2="-1769" y2="49.29" xlink:href="#linear-gradient-31"/>
    <linearGradient id="linear-gradient-40" x1="761.02" y1="450.82" x2="762.05" y2="48.52" gradientTransform="translate(1427.09)" xlink:href="#linear-gradient-31"/>
  </defs>
  <g>
    <polygon class="cls-37" points="970.4 243.79 909.31 312.25 909.5 256.47 970.58 189.97 970.4 243.79"/>
    <polygon class="cls-4" points="904.48 256.61 904.48 313.13 842.35 245.49 843.34 192.99 904.48 256.61"/>
    <polygon class="cls-16" points="775.41 179.72 775.35 125.01 837.51 189.17 837.51 242.35 775.41 179.72"/>
    <polygon class="cls-13" points="775.33 71.36 837.51 0 837.41 53.6 775.32 125.01 775.33 71.36"/>
    <polygon class="cls-18" points="1030.48 69.17 1031.47 121.67 969.58 187.51 969.4 135.66 1030.48 69.17"/>
    <polygon class="cls-32" points="904.48 367.82 842.35 430.4 842.35 377.84 904.46 314.25 904.48 367.82"/>
    <polygon class="cls-28" points="773.71 254.39 774.63 308.97 713.55 242.47 713.81 189.17 773.71 254.39"/>
    <polygon class="cls-23" points="711.15 134.44 711.56 187.51 650.48 121.01 650.2 67.11 711.15 134.44"/>
    <polygon class="cls-29" points="836.46 377.08 836.27 430.4 775.35 368.31 775.32 313.25 836.46 377.08"/>
  </g>
  <polygon class="cls-6" points="904.47 71.36 842.3 0 842.4 53.6 904.48 125.01 904.47 71.36"/>
  <g>
    <polygon class="cls-30" points="320.2 278.05 259.11 346.52 259.3 290.73 320.38 224.24 320.2 278.05"/>
    <polygon class="cls-7" points="254.28 290.88 254.28 347.4 192.15 279.76 193.14 227.26 254.28 290.88"/>
    <polygon class="cls-2" points="125.21 213.98 125.15 159.28 187.3 223.43 187.3 276.62 125.21 213.98"/>
    <polygon class="cls-24" points="125.13 105.63 187.3 34.27 187.2 87.87 125.12 159.28 125.13 105.63"/>
    <polygon class="cls-1" points="380.28 103.43 381.27 155.94 319.38 221.77 319.2 169.93 380.28 103.43"/>
    <polygon class="cls-36" points="254.28 402.08 192.15 464.67 192.15 412.11 254.26 348.52 254.28 402.08"/>
    <polygon class="cls-27" points="123.51 288.66 124.43 343.24 63.35 276.74 63.6 223.43 123.51 288.66"/>
    <polygon class="cls-40" points="60.94 168.71 61.36 221.77 .28 155.28 0 101.37 60.94 168.71"/>
    <polygon class="cls-31" points="186.26 411.34 186.07 464.67 125.15 402.58 125.12 347.52 186.26 411.34"/>
  </g>
  <polygon class="cls-26" points="254.27 105.63 192.1 34.27 192.2 87.87 254.28 159.28 254.27 105.63"/>
  <g>
    <polygon class="cls-34" points="1630.75 278.05 1569.66 346.52 1569.85 290.73 1630.93 224.24 1630.75 278.05"/>
    <polygon class="cls-20" points="1564.83 290.88 1564.83 347.4 1502.7 279.76 1503.69 227.26 1564.83 290.88"/>
    <polygon class="cls-38" points="1435.76 213.98 1435.7 159.28 1497.86 223.43 1497.86 276.62 1435.76 213.98"/>
    <polygon class="cls-21" points="1435.68 105.63 1497.86 34.27 1497.76 87.87 1435.67 159.28 1435.68 105.63"/>
    <polygon class="cls-5" points="1690.83 103.43 1691.82 155.94 1629.93 221.77 1629.75 169.93 1690.83 103.43"/>
    <polygon class="cls-12" points="1564.83 402.08 1502.7 464.67 1502.7 412.11 1564.81 348.52 1564.83 402.08"/>
    <polygon class="cls-9" points="1434.06 288.66 1434.98 343.24 1373.9 276.74 1374.16 223.43 1434.06 288.66"/>
    <polygon class="cls-3" points="1371.5 168.71 1371.91 221.77 1310.83 155.28 1310.55 101.37 1371.5 168.71"/>
    <polygon class="cls-25" points="1496.81 411.34 1496.62 464.67 1435.7 402.58 1435.67 347.52 1496.81 411.34"/>
  </g>
  <polygon class="cls-15" points="1564.82 105.63 1502.65 34.27 1502.75 87.87 1564.83 159.28 1564.82 105.63"/>
  <g>
    <polygon class="cls-39" points="2286.02 278.05 2224.93 346.52 2225.13 290.73 2286.21 224.24 2286.02 278.05"/>
    <polygon class="cls-35" points="2220.1 290.88 2220.1 347.4 2157.98 279.76 2158.97 227.26 2220.1 290.88"/>
    <polygon class="cls-22" points="2091.04 213.98 2090.98 159.28 2153.13 223.43 2153.13 276.62 2091.04 213.98"/>
    <polygon class="cls-17" points="2090.96 105.63 2153.13 34.27 2153.03 87.87 2090.95 159.28 2090.96 105.63"/>
    <polygon class="cls-14" points="2346.1 103.43 2347.1 155.94 2285.21 221.77 2285.02 169.93 2346.1 103.43"/>
    <polygon class="cls-33" points="2220.1 402.08 2157.98 464.67 2157.98 412.11 2220.09 348.52 2220.1 402.08"/>
    <polygon class="cls-10" points="2089.34 288.66 2090.26 343.24 2029.18 276.74 2029.43 223.43 2089.34 288.66"/>
    <polygon class="cls-19" points="2026.77 168.71 2027.18 221.77 1966.1 155.28 1965.83 101.37 2026.77 168.71"/>
    <polygon class="cls-11" points="2152.08 411.34 2151.9 464.67 2090.98 402.58 2090.95 347.52 2152.08 411.34"/>
  </g>
  <polygon class="cls-8" points="2220.1 105.63 2157.92 34.27 2158.02 87.87 2220.1 159.28 2220.1 105.63"/>
</svg>