<?xml version="1.0" encoding="UTF-8"?>
<svg xmlns="http://www.w3.org/2000/svg" xmlns:xlink="http://www.w3.org/1999/xlink" viewBox="1965.83 34.27 381.27 430.4">
  <defs>
    <linearGradient id="a" x1="-1904.32" y1="433.55" x2="-1903.32" y2="40.02" gradientTransform="translate(351.63) rotate(-180) scale(1 -1)" gradientUnits="userSpaceOnUse">
      <stop offset=".01" stop-color="#231f20"/>
      <stop offset=".21" stop-color="#3a1c1d"/>
      <stop offset=".55" stop-color="#5f1719"/>
      <stop offset=".82" stop-color="#751416"/>
      <stop offset="1" stop-color="#7e1416"/>
    </linearGradient>
    <linearGradient id="b" x1="-1837.79" y1="432.05" x2="-1836.81" y2="45.44" xlink:href="#a"/>
    <linearGradient id="c" x1="-1770.99" y1="428.99" x2="-1770.03" y2="51.36" xlink:href="#a"/>
    <linearGradient id="d" x1="-1771.31" y1="450.82" x2="-1770.29" y2="48.52" xlink:href="#a"/>
    <linearGradient id="e" x1="-1965.1" y1="427.15" x2="-1964.14" y2="46.33" xlink:href="#a"/>
    <linearGradient id="f" x1="-1837.46" y1="426.45" x2="-1836.51" y2="52.72" xlink:href="#a"/>
    <linearGradient id="g" x1="-1708.39" y1="428.98" x2="-1707.41" y2="43.45" xlink:href="#a"/>
    <linearGradient id="h" x1="-1645.57" y1="433.57" x2="-1644.59" y2="46.11" xlink:href="#a"/>
    <linearGradient id="i" x1="-1769.95" y1="426.29" x2="-1769" y2="49.29" xlink:href="#a"/>
    <linearGradient id="j" x1="761.02" y1="450.82" x2="762.05" y2="48.52" gradientTransform="translate(1427.09)" xlink:href="#a"/>
  </defs>
  <polygon fill="url(#a)" points="2286.02 278.05 2224.93 346.52 2225.13 290.73 2286.21 224.24 2286.02 278.05"/>
  <polygon fill="url(#b)" points="2220.1 290.88 2220.1 347.4 2157.98 279.76 2158.97 227.26 2220.1 290.88"/>
  <polygon fill="url(#c)" points="2091.04 213.98 2090.98 159.28 2153.13 223.43 2153.13 276.62 2091.04 213.98"/>
  <polygon fill="url(#d)" points="2090.96 105.63 2153.13 34.27 2153.03 87.87 2090.95 159.28 2090.96 105.63"/>
  <polygon fill="url(#e)" points="2346.1 103.43 2347.1 155.94 2285.21 221.77 2285.02 169.93 2346.1 103.43"/>
  <polygon fill="url(#f)" points="2220.1 402.08 2157.98 464.67 2157.98 412.11 2220.09 348.52 2220.1 402.08"/>
  <polygon fill="url(#g)" points="2089.34 288.66 2090.26 343.24 2029.18 276.74 2029.43 223.43 2089.34 288.66"/>
  <polygon fill="url(#h)" points="2026.77 168.71 2027.18 221.77 1966.1 155.28 1965.83 101.37 2026.77 168.71"/>
  <polygon fill="url(#i)" points="2152.08 411.34 2151.9 464.67 2090.98 402.58 2090.95 347.52 2152.08 411.34"/>
  <polygon fill="url(#j)" points="2220.1 105.63 2157.92 34.27 2158.02 87.87 2220.1 159.28 2220.1 105.63"/>
</svg>
